<svg width="14" height="14" viewBox="0 0 14 14" fill="none" xmlns="http://www.w3.org/2000/svg">
<g clip-path="url(#clip0_3474_427)">
<path d="M5.40463 4.1601C3.80404 4.1601 3.27051 5.7607 3.27051 7.09453C3.27051 8.69512 4.33757 11.096 5.40463 11.096C5.98512 11.0715 6.30043 10.8292 7.00523 10.8292C7.70522 10.8292 7.80552 11.096 8.60582 11.096C9.40612 11.096 10.7399 9.49542 10.7399 8.42835C10.725 8.42302 9.42106 8.21334 9.40612 6.82776C9.39598 5.67 10.6951 5.25171 10.7399 5.22717C10.1941 4.43114 9.1655 4.17984 8.87259 4.1601C8.10804 4.10088 7.36269 4.69364 7.00523 4.69364C6.64243 4.69364 5.99152 4.1601 5.40463 4.1601Z" fill="#BABABA" stroke="#BABABA" stroke-width="0.457313" stroke-linecap="round" stroke-linejoin="round"/>
<path d="M7.00586 2.55952C7.28886 2.55952 7.56027 2.4471 7.76039 2.24699C7.9605 2.04688 8.07292 1.77546 8.07292 1.49246C7.78992 1.49246 7.51851 1.60488 7.31839 1.805C7.11828 2.00511 7.00586 2.27652 7.00586 2.55952Z" fill="#BABABA"/>
<path d="M7.00586 2.55952C7.28886 2.55952 7.56027 2.4471 7.76039 2.24699C7.9605 2.04688 8.07292 1.77546 8.07292 1.49246C7.78992 1.49246 7.51851 1.60488 7.31839 1.805C7.11828 2.00511 7.00586 2.27652 7.00586 2.55952" stroke="#BABABA" stroke-width="0.457313" stroke-linecap="round" stroke-linejoin="round"/>
</g>
<defs>
<clipPath id="clip0_3474_427">
<rect width="12.8048" height="12.8048" fill="white" transform="translate(0.603516 0.425446)"/>
</clipPath>
</defs>
</svg>
