<svg width="108" height="80" viewBox="0 0 108 80" fill="none" xmlns="http://www.w3.org/2000/svg">
<path d="M107.778 40.0116C107.778 32.5196 102.117 26.3362 94.8493 25.4916V7.2358C94.8469 5.36721 94.1036 3.57584 92.7823 2.25454C91.461 0.933251 89.6696 0.189896 87.801 0.1875C84.1105 0.1875 81.1105 3.04259 80.8093 6.65618L59.7663 13.6683L30.6493 23.3701H16.0908C15.7017 21.5807 14.7128 19.9779 13.288 18.8274C11.8633 17.6769 10.0882 17.0477 8.25688 17.0441C6.12909 17.0459 4.08893 17.8918 2.58414 19.3962C1.07935 20.9005 0.232867 22.9405 0.230469 25.0683V54.9324C0.232867 57.0602 1.07935 59.1001 2.58414 60.6045C4.08893 62.1089 6.12909 62.9548 8.25688 62.9566C12.0969 62.9566 15.3097 60.2396 16.0908 56.6305H25.5708C25.2077 57.9318 25.0196 59.2757 25.0116 60.6267C25.0164 64.6786 26.6281 68.5631 29.4932 71.4282C32.3583 74.2933 36.2428 75.905 40.2946 75.9098C43.6749 75.906 46.9583 74.7807 49.6302 72.7102C52.3022 70.6398 54.2116 67.7413 55.0591 64.469L80.8093 73.3332C81.1037 76.9513 84.1082 79.8132 87.801 79.8132C89.6696 79.8108 91.461 79.0674 92.7823 77.7461C94.1036 76.4248 94.8469 74.6334 94.8493 72.7649V54.509C102.117 53.6667 107.778 47.4901 107.778 40.0116ZM80.7505 10.2539V69.7218L54.2893 60.6132L32.6282 53.6917V26.2909L80.7505 10.2539ZM8.25688 59.5626C7.02964 59.5614 5.85297 59.0735 4.98497 58.2059C4.11696 57.3383 3.62849 56.1619 3.6267 54.9347V25.0705C3.6267 22.5188 5.70292 20.4426 8.25688 20.4426C10.8086 20.4426 12.8848 22.5188 12.8848 25.0705V54.9347C12.8836 56.1617 12.3956 57.3381 11.528 58.2058C10.6604 59.0734 9.48392 59.5614 8.25688 59.5626ZM16.281 26.7686H29.232V53.2366H16.281V26.7686ZM40.2946 72.5135C37.1431 72.5099 34.1218 71.2564 31.8934 69.028C29.6649 66.7996 28.4114 63.7782 28.4078 60.6267C28.4078 59.2547 28.6569 57.8939 29.1165 56.6305H30.6607L51.7965 63.3822C50.5354 68.6645 45.8395 72.5135 40.2946 72.5135ZM91.4531 72.7626C91.4531 74.7777 89.8139 76.4169 87.801 76.4169C85.7882 76.4169 84.1467 74.7777 84.1467 72.7649V7.2358C84.1873 6.29416 84.59 5.40457 85.2706 4.75263C85.9513 4.10069 86.8574 3.73676 87.7999 3.73676C88.7424 3.73676 89.6485 4.10069 90.3292 4.75263C91.0098 5.40457 91.4125 6.29416 91.4531 7.2358V72.7626ZM94.8493 51.0494V28.9513C100.233 29.7777 104.381 34.3988 104.381 40.0116C104.381 45.6132 100.233 50.223 94.8493 51.0494Z" fill="#9094A4" fill-opacity="0.12"/>
</svg>
