<svg width="137" height="37" viewBox="0 0 137 37" fill="none" xmlns="http://www.w3.org/2000/svg">
<path d="M11.616 6.67144C14.432 6.67144 16.7467 7.24744 18.56 8.39944C20.3733 9.53011 21.3013 11.2154 21.344 13.4554V13.8394H14.72V13.7114C14.72 13.0714 14.4853 12.5381 14.016 12.1114C13.5467 11.6848 12.832 11.4714 11.872 11.4714C10.9333 11.4714 10.208 11.6101 9.696 11.8874C9.20533 12.1648 8.96 12.5061 8.96 12.9114C8.96 13.4874 9.30133 13.9141 9.984 14.1914C10.6667 14.4688 11.7653 14.7568 13.28 15.0554C15.0507 15.4181 16.5013 15.8021 17.632 16.2074C18.784 16.5914 19.7867 17.2314 20.64 18.1274C21.4933 19.0234 21.9307 20.2394 21.952 21.7754C21.952 24.3781 21.0667 26.3088 19.296 27.5674C17.5467 28.8261 15.2 29.4554 12.256 29.4554C8.82133 29.4554 6.144 28.8794 4.224 27.7274C2.32533 26.5754 1.376 24.5381 1.376 21.6154H8.064C8.064 22.7248 8.352 23.4714 8.928 23.8554C9.504 24.2181 10.4 24.3994 11.616 24.3994C12.512 24.3994 13.248 24.3034 13.824 24.1114C14.4213 23.9194 14.72 23.5248 14.72 22.9274C14.72 22.3941 14.3893 21.9994 13.728 21.7434C13.088 21.4661 12.032 21.1781 10.56 20.8794C8.768 20.4954 7.28533 20.1008 6.112 19.6954C4.93867 19.2688 3.91467 18.5754 3.04 17.6154C2.16533 16.6554 1.728 15.3541 1.728 13.7114C1.728 11.3008 2.656 9.53011 4.512 8.39944C6.38933 7.24744 8.75733 6.67144 11.616 6.67144ZM31.3818 13.9354C32.0644 13.2528 32.8644 12.7301 33.7818 12.3674C34.6991 11.9834 35.6591 11.7914 36.6618 11.7914C38.6244 11.7914 40.0964 12.3354 41.0778 13.4234C42.0591 14.5114 42.5498 16.0794 42.5498 18.1274V29.0714H36.1818V18.8954C36.1818 18.1701 35.9898 17.5941 35.6058 17.1674C35.2431 16.7194 34.7204 16.4954 34.0378 16.4954C33.2484 16.4954 32.6084 16.7514 32.1178 17.2634C31.6271 17.7754 31.3818 18.4048 31.3818 19.1514V29.0714H25.0138V5.87144H31.3818V13.9354Z" fill="#1852C3"/>
<g clip-path="url(#clip0_83_320)">
<path d="M51.8571 3.5119C52.226 3.51195 52.582 3.64737 52.8577 3.89248C53.1333 4.13759 53.3094 4.47533 53.3526 4.84166L53.3631 5.01785V6.62621L73.0474 8.03428C73.4343 8.06168 73.7957 8.23732 74.0564 8.52459C74.317 8.81187 74.4567 9.18863 74.4464 9.57637L74.4314 9.74805L72.9254 20.2897C72.8785 20.6198 72.7234 20.9251 72.4844 21.1575C72.2454 21.39 71.936 21.5366 71.6047 21.5743L71.4345 21.5833H53.3631V24.5952H68.4226C69.3049 24.5953 70.1678 24.8536 70.9049 25.3384C71.642 25.8232 72.2211 26.5132 72.5706 27.3233C72.9201 28.1334 73.0248 29.028 72.8717 29.8969C72.7187 30.7658 72.3145 31.5708 71.7093 32.2127C71.104 32.8545 70.324 33.3051 69.4656 33.5089C68.6072 33.7126 67.7079 33.6605 66.8788 33.3591C66.0496 33.0576 65.3269 32.52 64.7997 31.8126C64.2725 31.1052 63.9641 30.2589 63.9123 29.3781L63.9048 29.1131L63.9123 28.848C63.9379 28.4143 64.0237 27.9987 64.1623 27.6071H56.1175C56.3324 28.2168 56.414 28.8655 56.3568 29.5094C56.2995 30.1533 56.1048 30.7774 55.7856 31.3396C55.4665 31.9018 55.0304 32.389 54.5069 32.7682C53.9834 33.1474 53.3845 33.4098 52.7509 33.5378C52.1172 33.6657 51.4635 33.6562 50.8338 33.5098C50.2042 33.3635 49.6132 33.0837 49.101 32.6894C48.5887 32.2951 48.167 31.7955 47.8644 31.2242C47.5618 30.653 47.3853 30.0234 47.3468 29.3781L47.3393 29.1131L47.3468 28.848C47.3989 27.9602 47.7118 27.1074 48.2462 26.3965C48.7806 25.6856 49.5128 25.1481 50.3512 24.8512V6.52381H48.8452C48.4764 6.52376 48.1204 6.38834 47.8447 6.14323C47.5691 5.89812 47.393 5.56038 47.3498 5.19405L47.3393 5.01785C47.3393 4.649 47.4748 4.29298 47.7199 4.01734C47.965 3.7417 48.3027 3.5656 48.669 3.52244L48.8452 3.5119H51.8571ZM51.8571 27.6071C51.4577 27.6071 51.0747 27.7658 50.7923 28.0482C50.5099 28.3306 50.3512 28.7137 50.3512 29.1131C50.3512 29.5125 50.5099 29.8955 50.7923 30.178C51.0747 30.4604 51.4577 30.619 51.8571 30.619C52.2565 30.619 52.6396 30.4604 52.922 30.178C53.2044 29.8955 53.3631 29.5125 53.3631 29.1131C53.3631 28.7137 53.2044 28.3306 52.922 28.0482C52.6396 27.7658 52.2565 27.6071 51.8571 27.6071ZM68.4226 27.6071C68.0232 27.6071 67.6402 27.7658 67.3577 28.0482C67.0753 28.3306 66.9167 28.7137 66.9167 29.1131C66.9167 29.5125 67.0753 29.8955 67.3577 30.178C67.6402 30.4604 68.0232 30.619 68.4226 30.619C68.822 30.619 69.2051 30.4604 69.4875 30.178C69.7699 29.8955 69.9286 29.5125 69.9286 29.1131C69.9286 28.7137 69.7699 28.3306 69.4875 28.0482C69.2051 27.7658 68.822 27.6071 68.4226 27.6071Z" fill="#1852C3"/>
</g>
<path d="M88.0203 11.7914C90.303 11.7914 92.063 12.5381 93.3003 14.0314C94.5376 15.5248 95.1563 17.7328 95.1563 20.6554C95.1563 23.5568 94.5376 25.7541 93.3003 27.2474C92.063 28.7194 90.303 29.4554 88.0203 29.4554C86.0576 29.4554 84.479 28.8154 83.2843 27.5354V35.3754H76.9163V12.1754H82.1003L82.6443 14.5754C83.8816 12.7194 85.6736 11.7914 88.0203 11.7914ZM86.0363 16.4954C85.0976 16.4954 84.3936 16.8261 83.9243 17.4874C83.455 18.1488 83.2203 19.0128 83.2203 20.0794V21.1354C83.2203 22.2021 83.455 23.0768 83.9243 23.7594C84.3936 24.4208 85.0976 24.7514 86.0363 24.7514C87.871 24.7514 88.7883 23.6528 88.7883 21.4554V19.7594C88.7883 17.5834 87.871 16.4954 86.0363 16.4954ZM109.492 12.1754V16.4954H105.908V22.9274C105.908 23.6954 106.036 24.2608 106.292 24.6234C106.548 24.9648 107.017 25.1354 107.7 25.1354H109.492V28.8794C108.98 29.0501 108.319 29.1888 107.508 29.2954C106.697 29.4021 105.993 29.4554 105.396 29.4554C103.519 29.4554 102.068 29.1141 101.044 28.4314C100.041 27.7488 99.54 26.5861 99.54 24.9434V16.4954H97.172V12.1754H99.796L101.172 7.05544H105.908V12.1754H109.492ZM120.799 11.7914C123.38 11.7914 125.481 12.2288 127.103 13.1034C128.724 13.9568 129.535 15.3541 129.535 17.2954V23.8874C129.535 24.2501 129.62 24.5488 129.791 24.7834C129.961 25.0181 130.217 25.1354 130.559 25.1354H131.711V28.8154C131.647 28.8581 131.476 28.9328 131.199 29.0394C130.943 29.1248 130.569 29.2101 130.079 29.2954C129.588 29.4021 129.023 29.4554 128.383 29.4554C127.145 29.4554 126.121 29.2741 125.311 28.9114C124.521 28.5274 123.977 28.0048 123.679 27.3434C122.868 27.9834 121.961 28.4954 120.959 28.8794C119.956 29.2634 118.783 29.4554 117.439 29.4554C113.471 29.4554 111.487 27.8768 111.487 24.7194C111.487 23.0768 111.924 21.8288 112.799 20.9754C113.695 20.1008 114.975 19.5034 116.639 19.1834C118.303 18.8634 120.479 18.7034 123.167 18.7034V17.8714C123.167 17.2101 122.932 16.7088 122.463 16.3674C122.015 16.0261 121.428 15.8554 120.703 15.8554C120.041 15.8554 119.465 15.9728 118.975 16.2074C118.505 16.4421 118.271 16.8154 118.271 17.3274V17.4554H111.999C111.977 17.3488 111.967 17.1994 111.967 17.0074C111.967 15.4074 112.724 14.1381 114.239 13.1994C115.775 12.2608 117.961 11.7914 120.799 11.7914ZM123.167 21.7114C121.353 21.7114 120.009 21.9141 119.135 22.3194C118.281 22.7034 117.855 23.2261 117.855 23.8874C117.855 24.9541 118.58 25.4874 120.031 25.4874C120.863 25.4874 121.588 25.2634 122.207 24.8154C122.847 24.3674 123.167 23.8128 123.167 23.1514V21.7114Z" fill="#1852C3"/>
<defs>
<clipPath id="clip0_83_320">
<rect width="36.1429" height="36.1429" fill="white" transform="translate(42.8214 0.5)"/>
</clipPath>
</defs>
</svg>
