<svg width="58" height="16" viewBox="0 0 58 16" fill="none" xmlns="http://www.w3.org/2000/svg">
<path d="M4.91772 2.66745C6.1099 2.66745 7.08983 2.91131 7.85752 3.39902C8.62521 3.87769 9.01808 4.59119 9.03615 5.53951V5.70208H6.23182V5.64789C6.23182 5.37694 6.13248 5.15115 5.93378 4.97052C5.73508 4.78989 5.43253 4.69957 5.0261 4.69957C4.62871 4.69957 4.32163 4.75828 4.10488 4.87569C3.89715 4.9931 3.79328 5.1376 3.79328 5.30921C3.79328 5.55306 3.93779 5.73369 4.2268 5.8511C4.51581 5.96851 4.98094 6.09044 5.62219 6.21688C6.37181 6.37042 6.98597 6.53299 7.46464 6.70459C7.95235 6.86716 8.37684 7.13811 8.7381 7.51744C9.09937 7.89677 9.28452 8.41157 9.29355 9.06185C9.29355 10.1637 8.91873 10.9811 8.16911 11.5139C7.42852 12.0468 6.43504 12.3132 5.18867 12.3132C3.73458 12.3132 2.60111 12.0694 1.78826 11.5817C0.984448 11.094 0.58254 10.2314 0.58254 8.99411H3.41396C3.41396 9.46376 3.53588 9.77986 3.77974 9.94243C4.02359 10.096 4.40292 10.1727 4.91772 10.1727C5.29705 10.1727 5.60864 10.1321 5.8525 10.0508C6.10538 9.96953 6.23182 9.80244 6.23182 9.54956C6.23182 9.32377 6.09183 9.15668 5.81185 9.0483C5.5409 8.93089 5.09384 8.80896 4.47066 8.68252C3.712 8.51995 3.0843 8.35286 2.58756 8.18126C2.09082 8.00063 1.6573 7.7071 1.28701 7.30068C0.91671 6.89426 0.731562 6.34333 0.731562 5.64789C0.731562 4.62732 1.12444 3.87769 1.91019 3.39902C2.70497 2.91131 3.70748 2.66745 4.91772 2.66745ZM13.2857 5.74272C13.5747 5.45371 13.9134 5.23244 14.3018 5.0789C14.6901 4.91633 15.0965 4.83505 15.521 4.83505C16.3519 4.83505 16.9751 5.06535 17.3906 5.52596C17.806 5.98658 18.0138 6.6504 18.0138 7.51744V12.1507H15.3178V7.84258C15.3178 7.5355 15.2365 7.29165 15.074 7.11102C14.9204 6.92135 14.6992 6.82652 14.4101 6.82652C14.076 6.82652 13.805 6.9349 13.5973 7.15166C13.3896 7.36842 13.2857 7.63485 13.2857 7.95096V12.1507H10.5898V2.32877H13.2857V5.74272Z" fill="#1852C3"/>
<g clip-path="url(#clip0_109_59)">
<path d="M21.9541 1.27512C22.1103 1.27514 22.261 1.33247 22.3777 1.43624C22.4944 1.54 22.5689 1.68299 22.5872 1.83808L22.5917 1.91267V2.59358L30.9252 3.1897C31.089 3.2013 31.242 3.27566 31.3523 3.39728C31.4627 3.5189 31.5218 3.6784 31.5175 3.84256L31.5111 3.91524L30.8735 8.37813C30.8537 8.51789 30.788 8.64711 30.6868 8.74553C30.5856 8.84395 30.4546 8.90601 30.3144 8.92197L30.2423 8.92579H22.5917V10.2009H28.9672C29.3407 10.2009 29.7061 10.3103 30.0181 10.5155C30.3302 10.7208 30.5753 11.0129 30.7233 11.3559C30.8713 11.6988 30.9156 12.0776 30.8508 12.4454C30.786 12.8132 30.6149 13.1541 30.3587 13.4258C30.1024 13.6975 29.7722 13.8883 29.4088 13.9746C29.0454 14.0608 28.6647 14.0388 28.3136 13.9111C27.9626 13.7835 27.6566 13.5559 27.4334 13.2564C27.2103 12.9569 27.0797 12.5986 27.0578 12.2258L27.0546 12.1136L27.0578 12.0014C27.0686 11.8177 27.1049 11.6418 27.1636 11.476H23.7578C23.8488 11.7341 23.8833 12.0088 23.8591 12.2814C23.8348 12.554 23.7524 12.8182 23.6173 13.0562C23.4822 13.2942 23.2975 13.5004 23.0759 13.661C22.8543 13.8215 22.6007 13.9326 22.3325 13.9868C22.0642 14.041 21.7875 14.0369 21.5209 13.975C21.2543 13.913 21.0041 13.7946 20.7873 13.6276C20.5704 13.4607 20.3919 13.2492 20.2638 13.0073C20.1356 12.7655 20.0609 12.499 20.0446 12.2258L20.0414 12.1136L20.0446 12.0014C20.0667 11.6255 20.1991 11.2645 20.4254 10.9635C20.6516 10.6625 20.9616 10.4349 21.3166 10.3093V2.55023H20.679C20.5228 2.55021 20.3721 2.49288 20.2554 2.38911C20.1387 2.28534 20.0642 2.14235 20.0459 1.98727L20.0414 1.91267C20.0415 1.75651 20.0988 1.60579 20.2026 1.4891C20.3063 1.3724 20.4493 1.29785 20.6044 1.27958L20.679 1.27512H21.9541ZM21.9541 11.476C21.785 11.476 21.6229 11.5432 21.5033 11.6628C21.3837 11.7823 21.3166 11.9445 21.3166 12.1136C21.3166 12.2827 21.3837 12.4448 21.5033 12.5644C21.6229 12.684 21.785 12.7511 21.9541 12.7511C22.1232 12.7511 22.2854 12.684 22.4049 12.5644C22.5245 12.4448 22.5917 12.2827 22.5917 12.1136C22.5917 11.9445 22.5245 11.7823 22.4049 11.6628C22.2854 11.5432 22.1232 11.476 21.9541 11.476ZM28.9672 11.476C28.7981 11.476 28.636 11.5432 28.5164 11.6628C28.3968 11.7823 28.3297 11.9445 28.3297 12.1136C28.3297 12.2827 28.3968 12.4448 28.5164 12.5644C28.636 12.684 28.7981 12.7511 28.9672 12.7511C29.1363 12.7511 29.2985 12.684 29.4181 12.5644C29.5376 12.4448 29.6048 12.2827 29.6048 12.1136C29.6048 11.9445 29.5376 11.7823 29.4181 11.6628C29.2985 11.5432 29.1363 11.476 28.9672 11.476Z" fill="#1852C3"/>
</g>
<path d="M37.2641 4.83505C38.2304 4.83505 38.9755 5.15115 39.4994 5.78337C40.0232 6.41558 40.2851 7.35035 40.2851 8.58769C40.2851 9.81599 40.0232 10.7462 39.4994 11.3785C38.9755 12.0016 38.2304 12.3132 37.2641 12.3132C36.4331 12.3132 35.7648 12.0423 35.259 11.5004V14.8195H32.5631V4.99761H34.7578L34.9881 6.01367C35.5119 5.22792 36.2706 4.83505 37.2641 4.83505ZM36.4241 6.82652C36.0267 6.82652 35.7287 6.96651 35.53 7.24649C35.3313 7.52647 35.2319 7.89225 35.2319 8.34383V8.7909C35.2319 9.24248 35.3313 9.61278 35.53 9.90179C35.7287 10.1818 36.0267 10.3218 36.4241 10.3218C37.2008 10.3218 37.5892 9.85663 37.5892 8.92637V8.20836C37.5892 7.28713 37.2008 6.82652 36.4241 6.82652ZM46.3543 4.99761V6.82652H44.837V9.54956C44.837 9.87469 44.8912 10.114 44.9995 10.2676C45.1079 10.4121 45.3066 10.4843 45.5956 10.4843H46.3543V12.0694C46.1375 12.1416 45.8575 12.2003 45.5143 12.2455C45.1711 12.2907 44.8731 12.3132 44.6202 12.3132C43.8254 12.3132 43.2113 12.1687 42.7778 11.8797C42.3533 11.5907 42.141 11.0985 42.141 10.403V6.82652H41.1385V4.99761H42.2494L42.8319 2.83002H44.837V4.99761H46.3543ZM51.1411 4.83505C52.2339 4.83505 53.1235 5.02019 53.8099 5.39049C54.4963 5.75176 54.8395 6.34333 54.8395 7.16521V9.95598C54.8395 10.1095 54.8757 10.236 54.9479 10.3353C55.0202 10.4347 55.1285 10.4843 55.2731 10.4843H55.7608V12.0423C55.7337 12.0603 55.6614 12.092 55.544 12.1371C55.4356 12.1732 55.2776 12.2094 55.0698 12.2455C54.8621 12.2907 54.6228 12.3132 54.3518 12.3132C53.828 12.3132 53.3945 12.2365 53.0513 12.0829C52.7171 11.9204 52.4868 11.6991 52.3604 11.4191C52.0171 11.6901 51.6333 11.9068 51.2088 12.0694C50.7843 12.2319 50.2876 12.3132 49.7186 12.3132C48.0387 12.3132 47.1988 11.6449 47.1988 10.3082C47.1988 9.61278 47.3839 9.08443 47.7542 8.72316C48.1335 8.35286 48.6754 8.09998 49.3799 7.9645C50.0844 7.82903 51.0056 7.76129 52.1436 7.76129V7.40906C52.1436 7.12908 52.0442 6.91684 51.8455 6.77233C51.6559 6.62782 51.4075 6.55557 51.1004 6.55557C50.8205 6.55557 50.5766 6.60524 50.3689 6.70459C50.1702 6.80394 50.0708 6.96199 50.0708 7.17875V7.23294H47.4155C47.4065 7.18778 47.402 7.12456 47.402 7.04328C47.402 6.36591 47.7226 5.82852 48.3639 5.43113C49.0141 5.03374 49.9399 4.83505 51.1411 4.83505ZM52.1436 9.03475C51.3759 9.03475 50.8069 9.12055 50.4366 9.29215C50.0753 9.45472 49.8947 9.676 49.8947 9.95598C49.8947 10.4076 50.2018 10.6334 50.8159 10.6334C51.1682 10.6334 51.4753 10.5385 51.7372 10.3489C52.0081 10.1592 52.1436 9.92437 52.1436 9.64439V9.03475Z" fill="#1852C3"/>
<defs>
<clipPath id="clip0_109_59">
<rect width="15.3014" height="15.3014" fill="white" transform="translate(18.1288)"/>
</clipPath>
</defs>
</svg>
