<svg width="14" height="14" viewBox="0 0 14 14" fill="none" xmlns="http://www.w3.org/2000/svg">
<g clip-path="url(#clip0_3596_432)">
<path d="M2.95215 2.40485V11.2508C2.95217 11.3163 2.96944 11.3807 3.00223 11.4375C3.03502 11.4943 3.08216 11.5414 3.13893 11.5741C3.19571 11.6069 3.2601 11.6242 3.32565 11.6242C3.3912 11.6241 3.45559 11.6069 3.51236 11.5741L11.3137 7.08178C11.3583 7.05604 11.3954 7.01899 11.4212 6.97436C11.447 6.92973 11.4605 6.8791 11.4605 6.82756C11.4605 6.77601 11.447 6.72538 11.4212 6.68075C11.3954 6.63612 11.3583 6.59907 11.3137 6.57333L3.51236 2.08153C3.45555 2.04873 3.39111 2.03148 3.32552 2.03149C3.25992 2.03151 3.19549 2.04881 3.1387 2.08163C3.08192 2.11446 3.03478 2.16167 3.00203 2.2185C2.96928 2.27533 2.95208 2.33979 2.95215 2.40538V2.40485Z" fill="#BABABA" stroke="#D2D2D2" stroke-width="0.457313" stroke-linecap="round" stroke-linejoin="round"/>
<path d="M8.82083 5.22733L3.21875 11.3629" stroke="#D2D2D2" stroke-width="0.457313" stroke-linecap="round" stroke-linejoin="round"/>
<path d="M3.21875 2.29276L8.82083 8.42837" stroke="#D2D2D2" stroke-width="0.457313" stroke-linecap="round" stroke-linejoin="round"/>
</g>
<defs>
<clipPath id="clip0_3596_432">
<rect width="12.8048" height="12.8048" fill="white" transform="translate(0.817383 0.425446)"/>
</clipPath>
</defs>
</svg>
