<svg width="58" height="26" viewBox="0 0 58 26" fill="none" xmlns="http://www.w3.org/2000/svg">
<path d="M4.91772 2.66748C6.1099 2.66748 7.08983 2.91134 7.85752 3.39905C8.62521 3.87772 9.01808 4.59122 9.03615 5.53954V5.70211H6.23182V5.64792C6.23182 5.37697 6.13248 5.15118 5.93378 4.97055C5.73508 4.78992 5.43253 4.6996 5.0261 4.6996C4.62871 4.6996 4.32163 4.75831 4.10488 4.87572C3.89715 4.99313 3.79328 5.13764 3.79328 5.30924C3.79328 5.55309 3.93779 5.73372 4.2268 5.85113C4.51581 5.96855 4.98094 6.09047 5.62219 6.21691C6.37181 6.37045 6.98597 6.53302 7.46464 6.70462C7.95235 6.86719 8.37684 7.13814 8.7381 7.51747C9.09937 7.8968 9.28452 8.4116 9.29355 9.06188C9.29355 10.1637 8.91873 10.9811 8.16911 11.514C7.42852 12.0468 6.43504 12.3133 5.18867 12.3133C3.73458 12.3133 2.60111 12.0694 1.78826 11.5817C0.984448 11.094 0.58254 10.2315 0.58254 8.99414H3.41396C3.41396 9.46379 3.53588 9.77989 3.77974 9.94246C4.02359 10.096 4.40292 10.1728 4.91772 10.1728C5.29705 10.1728 5.60864 10.1321 5.8525 10.0508C6.10538 9.96956 6.23182 9.80247 6.23182 9.54959C6.23182 9.3238 6.09183 9.15671 5.81185 9.04833C5.5409 8.93092 5.09384 8.80899 4.47066 8.68255C3.712 8.51998 3.0843 8.3529 2.58756 8.18129C2.09082 8.00066 1.6573 7.70713 1.28701 7.30071C0.91671 6.89429 0.731562 6.34336 0.731562 5.64792C0.731562 4.62735 1.12444 3.87772 1.91019 3.39905C2.70497 2.91134 3.70748 2.66748 4.91772 2.66748ZM13.2857 5.74275C13.5747 5.45374 13.9134 5.23247 14.3018 5.07893C14.6901 4.91636 15.0965 4.83508 15.521 4.83508C16.3519 4.83508 16.9751 5.06538 17.3906 5.526C17.806 5.98661 18.0138 6.65043 18.0138 7.51747V12.1507H15.3178V7.84261C15.3178 7.53553 15.2365 7.29168 15.074 7.11105C14.9204 6.92138 14.6992 6.82655 14.4101 6.82655C14.076 6.82655 13.805 6.93493 13.5973 7.15169C13.3896 7.36845 13.2857 7.63488 13.2857 7.95099V12.1507H10.5898V2.3288H13.2857V5.74275Z" fill="#1852C3"/>
<g clip-path="url(#clip0_3474_410)">
<path d="M21.9547 1.27515C22.1108 1.27517 22.2615 1.3325 22.3782 1.43627C22.4949 1.54003 22.5695 1.68302 22.5878 1.83811L22.5922 1.9127V2.59361L30.9257 3.18973C31.0895 3.20133 31.2425 3.27569 31.3529 3.39731C31.4632 3.51893 31.5224 3.67843 31.518 3.84259L31.5116 3.91527L30.8741 8.37816C30.8542 8.51792 30.7886 8.64714 30.6874 8.74556C30.5862 8.84398 30.4552 8.90604 30.3149 8.922L30.2429 8.92582H22.5922V10.2009H28.9678C29.3413 10.201 29.7066 10.3103 30.0187 10.5156C30.3307 10.7208 30.5759 11.0129 30.7239 11.3559C30.8718 11.6988 30.9161 12.0776 30.8513 12.4454C30.7865 12.8133 30.6155 13.1541 30.3592 13.4258C30.103 13.6976 29.7727 13.8883 29.4093 13.9746C29.0459 14.0608 28.6652 14.0388 28.3142 13.9112C27.9632 13.7836 27.6572 13.556 27.434 13.2565C27.2108 12.957 27.0802 12.5987 27.0583 12.2258L27.0551 12.1136L27.0583 12.0014C27.0691 11.8178 27.1055 11.6418 27.1641 11.4761H23.7583C23.8493 11.7342 23.8839 12.0088 23.8596 12.2814C23.8354 12.554 23.7529 12.8182 23.6178 13.0562C23.4827 13.2942 23.2981 13.5005 23.0765 13.661C22.8548 13.8216 22.6013 13.9327 22.333 13.9868C22.0648 14.041 21.788 14.037 21.5214 13.975C21.2549 13.913 21.0047 13.7946 20.7878 13.6277C20.5709 13.4607 20.3924 13.2492 20.2643 13.0074C20.1362 12.7655 20.0615 12.499 20.0452 12.2258L20.042 12.1136L20.0452 12.0014C20.0672 11.6255 20.1997 11.2645 20.4259 10.9635C20.6522 10.6625 20.9622 10.435 21.3171 10.3093V2.55026H20.6795C20.5234 2.55024 20.3727 2.49291 20.256 2.38914C20.1393 2.28537 20.0647 2.14238 20.0465 1.9873L20.042 1.9127C20.042 1.75654 20.0993 1.60582 20.2031 1.48913C20.3069 1.37243 20.4499 1.29788 20.605 1.27961L20.6795 1.27515H21.9547ZM21.9547 11.4761C21.7856 11.4761 21.6234 11.5432 21.5038 11.6628C21.3843 11.7824 21.3171 11.9445 21.3171 12.1136C21.3171 12.2827 21.3843 12.4449 21.5038 12.5644C21.6234 12.684 21.7856 12.7512 21.9547 12.7512C22.1238 12.7512 22.2859 12.684 22.4055 12.5644C22.525 12.4449 22.5922 12.2827 22.5922 12.1136C22.5922 11.9445 22.525 11.7824 22.4055 11.6628C22.2859 11.5432 22.1238 11.4761 21.9547 11.4761ZM28.9678 11.4761C28.7987 11.4761 28.6365 11.5432 28.517 11.6628C28.3974 11.7824 28.3302 11.9445 28.3302 12.1136C28.3302 12.2827 28.3974 12.4449 28.517 12.5644C28.6365 12.684 28.7987 12.7512 28.9678 12.7512C29.1369 12.7512 29.299 12.684 29.4186 12.5644C29.5382 12.4449 29.6053 12.2827 29.6053 12.1136C29.6053 11.9445 29.5382 11.7824 29.4186 11.6628C29.299 11.5432 29.1369 11.4761 28.9678 11.4761Z" fill="#1852C3"/>
</g>
<path d="M37.2637 4.83508C38.2301 4.83508 38.9752 5.15118 39.499 5.7834C40.0228 6.41561 40.2848 7.35038 40.2848 8.58772C40.2848 9.81602 40.0228 10.7463 39.499 11.3785C38.9752 12.0017 38.2301 12.3133 37.2637 12.3133C36.4328 12.3133 35.7644 12.0423 35.2587 11.5004V14.8195H32.5627V4.99765H34.7574L34.9877 6.0137C35.5115 5.22795 36.2702 4.83508 37.2637 4.83508ZM36.4237 6.82655C36.0264 6.82655 35.7283 6.96654 35.5296 7.24652C35.3309 7.5265 35.2316 7.89228 35.2316 8.34386V8.79093C35.2316 9.24251 35.3309 9.61281 35.5296 9.90182C35.7283 10.1818 36.0264 10.3218 36.4237 10.3218C37.2005 10.3218 37.5888 9.85666 37.5888 8.9264V8.20839C37.5888 7.28716 37.2005 6.82655 36.4237 6.82655ZM46.3539 4.99765V6.82655H44.8366V9.54959C44.8366 9.87473 44.8908 10.1141 44.9992 10.2676C45.1075 10.4121 45.3062 10.4844 45.5953 10.4844H46.3539V12.0694C46.1372 12.1417 45.8572 12.2004 45.514 12.2455C45.1708 12.2907 44.8727 12.3133 44.6198 12.3133C43.8251 12.3133 43.2109 12.1688 42.7774 11.8797C42.3529 11.5907 42.1407 11.0985 42.1407 10.4031V6.82655H41.1381V4.99765H42.249L42.8316 2.83005H44.8366V4.99765H46.3539ZM51.1407 4.83508C52.2335 4.83508 53.1232 5.02022 53.8096 5.39052C54.496 5.75179 54.8392 6.34336 54.8392 7.16524V9.95601C54.8392 10.1095 54.8753 10.236 54.9475 10.3353C55.0198 10.4347 55.1282 10.4844 55.2727 10.4844H55.7604V12.0423C55.7333 12.0604 55.661 12.092 55.5436 12.1371C55.4353 12.1733 55.2772 12.2094 55.0695 12.2455C54.8617 12.2907 54.6224 12.3133 54.3515 12.3133C53.8276 12.3133 53.3941 12.2365 53.0509 12.083C52.7167 11.9204 52.4864 11.6991 52.36 11.4191C52.0168 11.6901 51.6329 11.9068 51.2085 12.0694C50.784 12.232 50.2872 12.3133 49.7182 12.3133C48.0383 12.3133 47.1984 11.6449 47.1984 10.3082C47.1984 9.61281 47.3836 9.08446 47.7539 8.72319C48.1332 8.3529 48.6751 8.10001 49.3795 7.96454C50.084 7.82906 51.0052 7.76132 52.1432 7.76132V7.40909C52.1432 7.12911 52.0439 6.91687 51.8452 6.77236C51.6555 6.62785 51.4071 6.5556 51.1001 6.5556C50.8201 6.5556 50.5762 6.60528 50.3685 6.70462C50.1698 6.80397 50.0705 6.96202 50.0705 7.17878V7.23297H47.4152C47.4061 7.18782 47.4016 7.12459 47.4016 7.04331C47.4016 6.36594 47.7222 5.82855 48.3635 5.43116C49.0138 5.03377 49.9395 4.83508 51.1407 4.83508ZM52.1432 9.03478C51.3755 9.03478 50.8065 9.12058 50.4362 9.29218C50.075 9.45475 49.8943 9.67603 49.8943 9.95601C49.8943 10.4076 50.2014 10.6334 50.8156 10.6334C51.1678 10.6334 51.4749 10.5385 51.7368 10.3489C52.0078 10.1592 52.1432 9.9244 52.1432 9.64442V9.03478Z" fill="#1852C3"/>
<path d="M2.8873 23.2497C2.57684 23.2497 2.27484 23.2215 1.98131 23.165C1.68779 23.1086 1.42813 23.0126 1.20234 22.8771C0.976545 22.7416 0.798735 22.5638 0.668905 22.3437C0.539075 22.1235 0.474161 21.8498 0.474161 21.5224C0.474161 21.4942 0.474161 21.4688 0.474161 21.4462C0.474161 21.4179 0.476983 21.3897 0.482628 21.3615H1.15153C1.15153 21.3841 1.14871 21.4151 1.14307 21.4546C1.14307 21.4942 1.14307 21.528 1.14307 21.5562C1.14307 21.8046 1.21645 22.0135 1.36321 22.1828C1.51562 22.3465 1.71883 22.4707 1.97285 22.5554C2.23251 22.6344 2.52321 22.6739 2.84496 22.6739C2.95221 22.6739 3.07922 22.6683 3.22599 22.657C3.37839 22.64 3.5308 22.6118 3.68321 22.5723C3.84127 22.5271 3.98521 22.4679 4.11504 22.3945C4.24487 22.3155 4.34929 22.2167 4.42832 22.0981C4.51299 21.974 4.55533 21.8216 4.55533 21.6409C4.55533 21.4321 4.49888 21.2599 4.38599 21.1244C4.27309 20.9889 4.1235 20.8789 3.93723 20.7942C3.75659 20.7039 3.54774 20.6249 3.31066 20.5571C3.07358 20.4894 2.83085 20.4245 2.58248 20.3624C2.33411 20.3003 2.09139 20.2297 1.85431 20.1507C1.62287 20.0717 1.41401 19.9729 1.22774 19.8543C1.04146 19.7358 0.891874 19.589 0.778978 19.4141C0.671728 19.2334 0.618102 19.0133 0.618102 18.7536C0.618102 18.5278 0.66326 18.3218 0.753577 18.1355C0.843893 17.9492 0.98219 17.7912 1.16847 17.6614C1.35474 17.5259 1.59182 17.4215 1.87971 17.3481C2.16759 17.2747 2.5091 17.238 2.90423 17.238C3.20341 17.238 3.48282 17.269 3.74248 17.3311C4.00214 17.3932 4.23075 17.492 4.42832 17.6275C4.62589 17.7573 4.7783 17.9238 4.88555 18.127C4.99844 18.3246 5.05489 18.5645 5.05489 18.8468V18.9484H4.39445V18.8044C4.39445 18.5956 4.32954 18.4206 4.19971 18.2795C4.06988 18.1327 3.89489 18.0198 3.67474 17.9408C3.46024 17.8561 3.2147 17.8138 2.9381 17.8138C2.5599 17.8138 2.24944 17.8533 2.00672 17.9323C1.76399 18.0057 1.58336 18.1101 1.46482 18.2456C1.34628 18.3754 1.28701 18.5222 1.28701 18.6859C1.28701 18.8778 1.34346 19.0387 1.45635 19.1685C1.56925 19.2927 1.71883 19.3971 1.90511 19.4818C2.09139 19.5608 2.30024 19.6342 2.53168 19.7019C2.76876 19.764 3.01148 19.8261 3.25985 19.8882C3.50822 19.9503 3.74813 20.0237 3.97956 20.1084C4.21664 20.1874 4.42832 20.289 4.6146 20.4132C4.80652 20.5317 4.95611 20.6813 5.06336 20.8619C5.17625 21.0426 5.2327 21.2655 5.2327 21.5308C5.2327 21.9316 5.1311 22.259 4.92788 22.513C4.73032 22.767 4.45655 22.9533 4.10657 23.0719C3.75659 23.1904 3.35017 23.2497 2.8873 23.2497ZM6.30638 23.1481V17.0263H6.91601V19.2701H6.97528C7.09947 19.1064 7.23494 18.9766 7.3817 18.8806C7.52847 18.779 7.68934 18.7056 7.86433 18.6605C8.03932 18.6153 8.22842 18.5927 8.43163 18.5927C8.71387 18.5927 8.95942 18.6407 9.16827 18.7367C9.38278 18.827 9.5493 18.9766 9.66784 19.1854C9.78638 19.3943 9.84565 19.6794 9.84565 20.0406V23.1481H9.23601V20.0999C9.23601 19.9023 9.21061 19.7415 9.15981 19.6173C9.109 19.4931 9.03844 19.3971 8.94813 19.3294C8.85781 19.256 8.75056 19.2052 8.62638 19.177C8.50784 19.1488 8.37518 19.1346 8.22842 19.1346C8.00263 19.1346 7.78813 19.1854 7.58492 19.287C7.38735 19.3887 7.22647 19.5439 7.10229 19.7527C6.9781 19.956 6.91601 20.21 6.91601 20.5148V23.1481H6.30638ZM12.7476 23.2497C12.3186 23.2497 11.9517 23.1678 11.6469 23.0041C11.3477 22.8348 11.1191 22.5779 10.9611 22.2336C10.8087 21.8893 10.7324 21.4518 10.7324 20.9212C10.7324 20.385 10.8087 19.9475 10.9611 19.6088C11.1191 19.2645 11.3477 19.0105 11.6469 18.8468C11.9517 18.6774 12.3186 18.5927 12.7476 18.5927C13.1879 18.5927 13.5548 18.6774 13.8484 18.8468C14.1475 19.0105 14.3733 19.2645 14.5257 19.6088C14.6838 19.9475 14.7628 20.385 14.7628 20.9212C14.7628 21.4518 14.6838 21.8893 14.5257 22.2336C14.3733 22.5779 14.1475 22.8348 13.8484 23.0041C13.5548 23.1678 13.1879 23.2497 12.7476 23.2497ZM12.7476 22.7332C13.0468 22.7332 13.298 22.6739 13.5012 22.5554C13.7044 22.4368 13.8597 22.2534 13.9669 22.005C14.0742 21.751 14.1278 21.4236 14.1278 21.0228V20.8196C14.1278 20.4188 14.0742 20.0943 13.9669 19.8459C13.8597 19.5919 13.7044 19.4056 13.5012 19.287C13.298 19.1685 13.0468 19.1092 12.7476 19.1092C12.4485 19.1092 12.1973 19.1685 11.9941 19.287C11.7908 19.4056 11.6356 19.5919 11.5284 19.8459C11.4211 20.0943 11.3675 20.4188 11.3675 20.8196V21.0228C11.3675 21.4236 11.4211 21.751 11.5284 22.005C11.6356 22.2534 11.7908 22.4368 11.9941 22.5554C12.1973 22.6739 12.4485 22.7332 12.7476 22.7332ZM15.6914 24.6129V18.6943H16.174L16.2417 19.3463H16.301C16.459 19.0923 16.6566 18.9032 16.8937 18.779C17.1308 18.6548 17.3989 18.5927 17.6981 18.5927C18.0706 18.5927 18.3867 18.6746 18.6464 18.8383C18.9117 19.002 19.1121 19.2588 19.2476 19.6088C19.3887 19.9531 19.4592 20.4047 19.4592 20.9635C19.4592 21.4829 19.3887 21.9119 19.2476 22.2506C19.1064 22.5892 18.9032 22.8404 18.6379 23.0041C18.3783 23.1678 18.0706 23.2497 17.715 23.2497C17.5344 23.2497 17.3594 23.2271 17.19 23.1819C17.0207 23.1368 16.8655 23.0634 16.7243 22.9618C16.5832 22.8602 16.4619 22.7304 16.3603 22.5723H16.301V24.6129H15.6914ZM17.5541 22.7162C17.8364 22.7162 18.0706 22.6598 18.2569 22.5469C18.4488 22.4284 18.5899 22.2449 18.6803 21.9965C18.7762 21.7482 18.8242 21.4264 18.8242 21.0313V20.8196C18.8242 20.3962 18.7734 20.0632 18.6718 19.8205C18.5702 19.5721 18.4262 19.3943 18.24 19.287C18.0593 19.1798 17.8448 19.1262 17.5965 19.1262C17.2916 19.1262 17.0433 19.1939 16.8514 19.3294C16.6594 19.4592 16.5183 19.654 16.428 19.9136C16.3433 20.1676 16.301 20.4809 16.301 20.8535V20.9974C16.301 21.3474 16.3377 21.6353 16.4111 21.8611C16.4844 22.0869 16.5804 22.2618 16.6989 22.386C16.8175 22.5102 16.9501 22.5977 17.0969 22.6485C17.2493 22.6937 17.4017 22.7162 17.5541 22.7162ZM23.0794 23.1481L21.7247 18.6943H22.3597L23.0709 21.1583C23.1048 21.2712 23.1387 21.401 23.1725 21.5478C23.2121 21.6889 23.2488 21.8272 23.2826 21.9627C23.3165 22.0925 23.3419 22.1969 23.3588 22.276H23.4096C23.4322 22.1687 23.4604 22.0445 23.4943 21.9034C23.5282 21.7566 23.5592 21.6155 23.5874 21.48C23.6213 21.3446 23.6495 21.2345 23.6721 21.1498L24.2817 18.6943H24.9507L25.5772 21.1498C25.6054 21.2514 25.6337 21.3728 25.6619 21.5139C25.6958 21.6494 25.7268 21.7849 25.755 21.9203C25.7889 22.0558 25.8143 22.1743 25.8312 22.276H25.882C25.9046 22.18 25.9328 22.0643 25.9667 21.9288C26.0062 21.7933 26.0429 21.6579 26.0768 21.5224C26.1163 21.3813 26.1502 21.2599 26.1784 21.1583L26.8896 18.6943H27.4654L26.1191 23.1481H25.5179L24.9083 20.7603C24.8857 20.6587 24.8547 20.5345 24.8152 20.3878C24.7813 20.2354 24.7474 20.0801 24.7136 19.9221C24.6797 19.764 24.6515 19.6257 24.6289 19.5072H24.5781C24.5555 19.6088 24.5301 19.733 24.5019 19.8797C24.4737 20.0265 24.4398 20.1761 24.4003 20.3285C24.3664 20.4809 24.3325 20.6277 24.2987 20.7688L23.689 23.1481H23.0794ZM28.1854 17.7799V17.0263H28.795V17.7799H28.1854ZM28.1854 23.1481V18.6943H28.795V23.1481H28.1854ZM30.9701 23.2412C30.7669 23.2412 30.6032 23.2045 30.479 23.1311C30.3605 23.0578 30.2758 22.9561 30.225 22.8263C30.1799 22.6965 30.1573 22.5525 30.1573 22.3945V19.2108H29.5561V18.6943H30.1573L30.2758 17.4581H30.7669V18.6943H31.6221V19.2108H30.7669V22.2844C30.7669 22.4368 30.7867 22.5497 30.8262 22.6231C30.8714 22.6965 30.9673 22.7332 31.1141 22.7332H31.6221V23.1227C31.5657 23.1452 31.4979 23.165 31.4189 23.1819C31.3455 23.2045 31.2693 23.2186 31.1903 23.2243C31.1113 23.2356 31.0379 23.2412 30.9701 23.2412ZM32.4355 23.1481V17.0263H33.0451V19.2701H33.1044C33.2286 19.1064 33.364 18.9766 33.5108 18.8806C33.6576 18.779 33.8185 18.7056 33.9934 18.6605C34.1684 18.6153 34.3575 18.5927 34.5607 18.5927C34.843 18.5927 35.0885 18.6407 35.2974 18.7367C35.5119 18.827 35.6784 18.9766 35.7969 19.1854C35.9155 19.3943 35.9748 19.6794 35.9748 20.0406V23.1481H35.3651V20.0999C35.3651 19.9023 35.3397 19.7415 35.2889 19.6173C35.2381 19.4931 35.1676 19.3971 35.0772 19.3294C34.9869 19.256 34.8797 19.2052 34.7555 19.177C34.6369 19.1488 34.5043 19.1346 34.3575 19.1346C34.1317 19.1346 33.9172 19.1854 33.714 19.287C33.5165 19.3887 33.3556 19.5439 33.2314 19.7527C33.1072 19.956 33.0451 20.21 33.0451 20.5148V23.1481H32.4355ZM40.6452 23.2497C40.2219 23.2497 39.8634 23.1678 39.5699 23.0041C39.2764 22.8348 39.0534 22.5779 38.901 22.2336C38.7486 21.8893 38.6724 21.4518 38.6724 20.9212C38.6724 20.385 38.7486 19.9475 38.901 19.6088C39.0534 19.2645 39.2792 19.0105 39.5784 18.8468C39.8776 18.6774 40.2501 18.5927 40.696 18.5927C41.1081 18.5927 41.4524 18.6746 41.729 18.8383C42.0113 19.002 42.223 19.2391 42.3641 19.5495C42.5108 19.86 42.5842 20.241 42.5842 20.6926V21.0821H39.3074C39.3074 21.4716 39.3611 21.7905 39.4683 22.0389C39.5756 22.2872 39.728 22.4679 39.9255 22.5808C40.1288 22.688 40.3771 22.7416 40.6706 22.7416C40.8851 22.7416 41.0714 22.7134 41.2295 22.657C41.3932 22.6005 41.5258 22.5243 41.6274 22.4284C41.7347 22.3268 41.8165 22.2082 41.873 22.0727C41.9294 21.9373 41.9577 21.7961 41.9577 21.6494H42.5504C42.5504 21.8695 42.508 22.0784 42.4233 22.276C42.3443 22.4679 42.2258 22.6372 42.0677 22.784C41.9153 22.9307 41.7206 23.0465 41.4835 23.1311C41.2464 23.2102 40.967 23.2497 40.6452 23.2497ZM39.3074 20.5995H41.9492C41.9492 20.3172 41.9153 20.083 41.8476 19.8967C41.7855 19.7048 41.698 19.5524 41.5851 19.4395C41.4722 19.3209 41.3367 19.2362 41.1787 19.1854C41.0263 19.1346 40.8541 19.1092 40.6622 19.1092C40.3856 19.1092 40.1485 19.1629 39.9509 19.2701C39.7534 19.3717 39.601 19.5326 39.4937 19.7527C39.3921 19.9729 39.33 20.2551 39.3074 20.5995ZM44.6165 23.2497C44.4415 23.2497 44.2693 23.2271 44.1 23.1819C43.9306 23.1424 43.7782 23.0775 43.6428 22.9872C43.5129 22.8912 43.4085 22.7642 43.3295 22.6062C43.2504 22.4481 43.2109 22.2534 43.2109 22.0219C43.2109 21.7171 43.2843 21.4688 43.4311 21.2768C43.5835 21.0793 43.7952 20.9269 44.0661 20.8196C44.3371 20.7067 44.656 20.6305 45.0229 20.591C45.3955 20.5515 45.7991 20.5317 46.2337 20.5317V19.9644C46.2337 19.7838 46.1998 19.6314 46.1321 19.5072C46.07 19.3774 45.9571 19.2786 45.7934 19.2108C45.6354 19.1375 45.4096 19.1008 45.116 19.1008C44.8338 19.1008 44.6108 19.1375 44.4471 19.2108C44.2834 19.2842 44.1677 19.3802 44.1 19.4987C44.0379 19.6116 44.0068 19.7386 44.0068 19.8797V20.0152H43.4226C43.417 19.987 43.4141 19.9588 43.4141 19.9306C43.4141 19.9023 43.4141 19.8685 43.4141 19.8289C43.4141 19.5467 43.4875 19.3153 43.6343 19.1346C43.781 18.954 43.9899 18.8185 44.2609 18.7282C44.5318 18.6379 44.8423 18.5927 45.1922 18.5927C45.5479 18.5927 45.847 18.6464 46.0898 18.7536C46.3325 18.8552 46.5188 19.002 46.6486 19.1939C46.7784 19.3858 46.8433 19.6173 46.8433 19.8882V22.4453C46.8433 22.5525 46.8631 22.6288 46.9026 22.6739C46.9478 22.7134 47.007 22.7332 47.0804 22.7332H47.436V23.1227C47.3514 23.1565 47.2611 23.1848 47.1651 23.2073C47.0748 23.2299 46.9788 23.2412 46.8772 23.2412C46.7304 23.2412 46.6119 23.2102 46.5216 23.1481C46.4369 23.086 46.3748 22.9985 46.3353 22.8856C46.3014 22.7727 46.2789 22.6485 46.2676 22.513H46.2083C46.101 22.6654 45.9628 22.7981 45.7934 22.911C45.6297 23.0182 45.4491 23.1001 45.2515 23.1565C45.0539 23.2186 44.8423 23.2497 44.6165 23.2497ZM44.7435 22.7332C44.9298 22.7332 45.1104 22.7021 45.2854 22.64C45.4604 22.5779 45.6184 22.4933 45.7595 22.386C45.9007 22.2731 46.0136 22.1405 46.0982 21.9881C46.1885 21.8357 46.2337 21.6663 46.2337 21.48V21.0228C45.7087 21.0228 45.2684 21.051 44.9128 21.1075C44.5629 21.1639 44.2975 21.2627 44.1169 21.4038C43.9419 21.545 43.8544 21.7425 43.8544 21.9965C43.8544 22.1659 43.8911 22.307 43.9645 22.4199C44.0435 22.5271 44.1508 22.6062 44.2863 22.657C44.4217 22.7078 44.5741 22.7332 44.7435 22.7332ZM49.5534 23.2497C49.2598 23.2497 49.0002 23.2186 48.7744 23.1565C48.5486 23.1001 48.3595 23.0154 48.2071 22.9025C48.0603 22.784 47.9474 22.6429 47.8684 22.4792C47.795 22.3155 47.7583 22.1264 47.7583 21.9119C47.7583 21.8893 47.7583 21.8667 47.7583 21.8441C47.7583 21.8159 47.7611 21.7905 47.7668 21.7679H48.368C48.3623 21.7961 48.3595 21.8216 48.3595 21.8441C48.3595 21.8611 48.3595 21.878 48.3595 21.8949C48.3651 22.1151 48.4188 22.2872 48.5204 22.4114C48.622 22.53 48.7659 22.6146 48.9522 22.6654C49.1385 22.7162 49.353 22.7416 49.5957 22.7416C49.8045 22.7416 49.9908 22.7134 50.1545 22.657C50.3239 22.5949 50.4565 22.5074 50.5525 22.3945C50.6541 22.2816 50.7049 22.1433 50.7049 21.9796C50.7049 21.7707 50.64 21.6127 50.5101 21.5054C50.386 21.3982 50.2223 21.3163 50.019 21.2599C49.8158 21.1978 49.6042 21.1329 49.384 21.0652C49.2034 21.0143 49.0256 20.9607 48.8506 20.9043C48.6756 20.8422 48.5147 20.766 48.368 20.6757C48.2268 20.5853 48.1139 20.4696 48.0293 20.3285C47.9446 20.1874 47.9023 20.0096 47.9023 19.7951C47.9023 19.6088 47.9389 19.4423 48.0123 19.2955C48.0914 19.1488 48.2014 19.0246 48.3426 18.923C48.4893 18.8157 48.6671 18.7339 48.876 18.6774C49.0848 18.621 49.3219 18.5927 49.5872 18.5927C49.8808 18.5927 50.1319 18.6266 50.3408 18.6943C50.5497 18.7621 50.719 18.8552 50.8488 18.9738C50.9787 19.0867 51.0746 19.2165 51.1367 19.3633C51.1988 19.5044 51.2299 19.654 51.2299 19.812C51.2299 19.8346 51.227 19.86 51.2214 19.8882C51.2214 19.9164 51.2214 19.9418 51.2214 19.9644H50.6202V19.8543C50.6202 19.7358 50.5892 19.6201 50.5271 19.5072C50.4706 19.3943 50.3662 19.2983 50.2138 19.2193C50.067 19.1403 49.8469 19.1008 49.5534 19.1008C49.3784 19.1008 49.226 19.1177 49.0961 19.1516C48.9719 19.1798 48.8647 19.2221 48.7744 19.2786C48.6897 19.335 48.6248 19.4056 48.5796 19.4903C48.5401 19.5693 48.5204 19.6624 48.5204 19.7697C48.5204 19.9334 48.5712 20.0604 48.6728 20.1507C48.78 20.2354 48.9183 20.3059 49.0877 20.3624C49.257 20.4132 49.4376 20.4696 49.6296 20.5317C49.8215 20.5882 50.0162 20.6474 50.2138 20.7095C50.417 20.7716 50.6033 20.8478 50.7726 20.9381C50.942 21.0285 51.0774 21.1498 51.179 21.3022C51.2807 21.449 51.3315 21.6437 51.3315 21.8865C51.3315 22.1123 51.2863 22.3126 51.196 22.4876C51.1057 22.657 50.9815 22.7981 50.8234 22.911C50.6654 23.0239 50.4763 23.1086 50.2561 23.165C50.0416 23.2215 49.8074 23.2497 49.5534 23.2497ZM53.9827 23.2497C53.5593 23.2497 53.2009 23.1678 52.9073 23.0041C52.6138 22.8348 52.3908 22.5779 52.2384 22.2336C52.086 21.8893 52.0098 21.4518 52.0098 20.9212C52.0098 20.385 52.086 19.9475 52.2384 19.6088C52.3908 19.2645 52.6166 19.0105 52.9158 18.8468C53.215 18.6774 53.5875 18.5927 54.0335 18.5927C54.4455 18.5927 54.7899 18.6746 55.0665 18.8383C55.3487 19.002 55.5604 19.2391 55.7015 19.5495C55.8483 19.86 55.9216 20.241 55.9216 20.6926V21.0821H52.6449C52.6449 21.4716 52.6985 21.7905 52.8057 22.0389C52.913 22.2872 53.0654 22.4679 53.263 22.5808C53.4662 22.688 53.7145 22.7416 54.0081 22.7416C54.2226 22.7416 54.4088 22.7134 54.5669 22.657C54.7306 22.6005 54.8633 22.5243 54.9649 22.4284C55.0721 22.3268 55.154 22.2082 55.2104 22.0727C55.2669 21.9373 55.2951 21.7961 55.2951 21.6494H55.8878C55.8878 21.8695 55.8454 22.0784 55.7608 22.276C55.6817 22.4679 55.5632 22.6372 55.4051 22.784C55.2527 22.9307 55.058 23.0465 54.8209 23.1311C54.5838 23.2102 54.3044 23.2497 53.9827 23.2497ZM52.6449 20.5995H55.2866C55.2866 20.3172 55.2527 20.083 55.185 19.8967C55.1229 19.7048 55.0354 19.5524 54.9225 19.4395C54.8096 19.3209 54.6742 19.2362 54.5161 19.1854C54.3637 19.1346 54.1915 19.1092 53.9996 19.1092C53.723 19.1092 53.4859 19.1629 53.2884 19.2701C53.0908 19.3717 52.9384 19.5326 52.8311 19.7527C52.7295 19.9729 52.6674 20.2551 52.6449 20.5995Z" fill="#1852C3"/>
<defs>
<clipPath id="clip0_3474_410">
<rect width="15.3014" height="15.3014" fill="white" transform="translate(18.1289)"/>
</clipPath>
</defs>
</svg>
